<svg id="visual" viewBox="0 0 960 300" width="960" height="300" xmlns="http://www.w3.org/2000/svg" xmlns:xlink="http://www.w3.org/1999/xlink" version="1.1"><rect x="0" y="0" width="960" height="300" fill="#2a9d8f"></rect><path d="M0 70L12.3 80.8C24.7 91.7 49.3 113.3 74 120.3C98.7 127.3 123.3 119.7 148 121.7C172.7 123.7 197.3 135.3 221.8 131.7C246.3 128 270.7 109 295.2 105.8C319.7 102.7 344.3 115.3 369 115C393.7 114.7 418.3 101.3 443 101.7C467.7 102 492.3 116 517 110.7C541.7 105.3 566.3 80.7 591 73.8C615.7 67 640.3 78 664.8 85.3C689.3 92.7 713.7 96.3 738.2 105.7C762.7 115 787.3 130 812 135C836.7 140 861.3 135 886 130.8C910.7 126.7 935.3 123.3 947.7 121.7L960 120L960 301L947.7 301C935.3 301 910.7 301 886 301C861.3 301 836.7 301 812 301C787.3 301 762.7 301 738.2 301C713.7 301 689.3 301 664.8 301C640.3 301 615.7 301 591 301C566.3 301 541.7 301 517 301C492.3 301 467.7 301 443 301C418.3 301 393.7 301 369 301C344.3 301 319.7 301 295.2 301C270.7 301 246.3 301 221.8 301C197.3 301 172.7 301 148 301C123.3 301 98.7 301 74 301C49.3 301 24.7 301 12.3 301L0 301Z" fill="#e9c46a"></path><path d="M0 174L12.3 171.2C24.7 168.3 49.3 162.7 74 150.3C98.7 138 123.3 119 148 122C172.7 125 197.3 150 221.8 161.7C246.3 173.3 270.7 171.7 295.2 166.7C319.7 161.7 344.3 153.3 369 147.2C393.7 141 418.3 137 443 131.2C467.7 125.3 492.3 117.7 517 118C541.7 118.3 566.3 126.7 591 129.2C615.7 131.7 640.3 128.3 664.8 129.5C689.3 130.7 713.7 136.3 738.2 131C762.7 125.7 787.3 109.3 812 110.7C836.7 112 861.3 131 886 134.7C910.7 138.3 935.3 126.7 947.7 120.8L960 115L960 301L947.7 301C935.3 301 910.7 301 886 301C861.3 301 836.7 301 812 301C787.3 301 762.7 301 738.2 301C713.7 301 689.3 301 664.8 301C640.3 301 615.7 301 591 301C566.3 301 541.7 301 517 301C492.3 301 467.7 301 443 301C418.3 301 393.7 301 369 301C344.3 301 319.7 301 295.2 301C270.7 301 246.3 301 221.8 301C197.3 301 172.7 301 148 301C123.3 301 98.7 301 74 301C49.3 301 24.7 301 12.3 301L0 301Z" fill="#ebb05d"></path><path d="M0 177L12.3 180.7C24.7 184.3 49.3 191.7 74 193.2C98.7 194.7 123.3 190.3 148 186.2C172.7 182 197.3 178 221.8 181.5C246.3 185 270.7 196 295.2 193.5C319.7 191 344.3 175 369 169.3C393.7 163.7 418.3 168.3 443 168.7C467.7 169 492.3 165 517 168.8C541.7 172.7 566.3 184.3 591 184.5C615.7 184.7 640.3 173.3 664.8 164C689.3 154.7 713.7 147.3 738.2 154.5C762.7 161.7 787.3 183.3 812 193.7C836.7 204 861.3 203 886 196.3C910.7 189.7 935.3 177.3 947.7 171.2L960 165L960 301L947.7 301C935.3 301 910.7 301 886 301C861.3 301 836.7 301 812 301C787.3 301 762.7 301 738.2 301C713.7 301 689.3 301 664.8 301C640.3 301 615.7 301 591 301C566.3 301 541.7 301 517 301C492.3 301 467.7 301 443 301C418.3 301 393.7 301 369 301C344.3 301 319.7 301 295.2 301C270.7 301 246.3 301 221.8 301C197.3 301 172.7 301 148 301C123.3 301 98.7 301 74 301C49.3 301 24.7 301 12.3 301L0 301Z" fill="#ec9b54"></path><path d="M0 222L12.3 224.3C24.7 226.7 49.3 231.3 74 228.3C98.7 225.3 123.3 214.7 148 212.2C172.7 209.7 197.3 215.3 221.8 211.7C246.3 208 270.7 195 295.2 195.2C319.7 195.3 344.3 208.7 369 217.8C393.7 227 418.3 232 443 230.5C467.7 229 492.3 221 517 217.7C541.7 214.3 566.3 215.7 591 220.2C615.7 224.7 640.3 232.3 664.8 231.5C689.3 230.7 713.7 221.3 738.2 219.3C762.7 217.3 787.3 222.7 812 227C836.7 231.3 861.3 234.7 886 235C910.7 235.3 935.3 232.7 947.7 231.3L960 230L960 301L947.7 301C935.3 301 910.7 301 886 301C861.3 301 836.7 301 812 301C787.3 301 762.7 301 738.2 301C713.7 301 689.3 301 664.8 301C640.3 301 615.7 301 591 301C566.3 301 541.7 301 517 301C492.3 301 467.7 301 443 301C418.3 301 393.7 301 369 301C344.3 301 319.7 301 295.2 301C270.7 301 246.3 301 221.8 301C197.3 301 172.7 301 148 301C123.3 301 98.7 301 74 301C49.3 301 24.7 301 12.3 301L0 301Z" fill="#eb8550"></path><path d="M0 248L12.3 244.3C24.7 240.7 49.3 233.3 74 230.3C98.7 227.3 123.3 228.7 148 235.7C172.7 242.7 197.3 255.3 221.8 257.5C246.3 259.7 270.7 251.3 295.2 244.5C319.7 237.7 344.3 232.3 369 232.7C393.7 233 418.3 239 443 239.7C467.7 240.3 492.3 235.7 517 235.7C541.7 235.7 566.3 240.3 591 243.7C615.7 247 640.3 249 664.8 247.2C689.3 245.3 713.7 239.7 738.2 239.7C762.7 239.7 787.3 245.3 812 251.2C836.7 257 861.3 263 886 263C910.7 263 935.3 257 947.7 254L960 251L960 301L947.7 301C935.3 301 910.7 301 886 301C861.3 301 836.7 301 812 301C787.3 301 762.7 301 738.2 301C713.7 301 689.3 301 664.8 301C640.3 301 615.7 301 591 301C566.3 301 541.7 301 517 301C492.3 301 467.7 301 443 301C418.3 301 393.7 301 369 301C344.3 301 319.7 301 295.2 301C270.7 301 246.3 301 221.8 301C197.3 301 172.7 301 148 301C123.3 301 98.7 301 74 301C49.3 301 24.7 301 12.3 301L0 301Z" fill="#e76f51"></path></svg>