<svg id="visual" viewBox="0 0 960 300" width="960" height="300" xmlns="http://www.w3.org/2000/svg" xmlns:xlink="http://www.w3.org/1999/xlink" version="1.1"><path d="M0 76L32 77.5C64 79 128 82 192 75.5C256 69 320 53 384 48C448 43 512 49 576 49.5C640 50 704 45 768 44C832 43 896 46 928 47.5L960 49L960 0L928 0C896 0 832 0 768 0C704 0 640 0 576 0C512 0 448 0 384 0C320 0 256 0 192 0C128 0 64 0 32 0L0 0Z" fill="#bbc5aa"></path><path d="M0 106L32 109.5C64 113 128 120 192 116C256 112 320 97 384 86C448 75 512 68 576 63.5C640 59 704 57 768 63C832 69 896 83 928 90L960 97L960 47L928 45.5C896 44 832 41 768 42C704 43 640 48 576 47.5C512 47 448 41 384 46C320 51 256 67 192 73.5C128 80 64 77 32 75.5L0 74Z" fill="#c5cfb5"></path><path d="M0 223L32 226C64 229 128 235 192 229C256 223 320 205 384 193.5C448 182 512 177 576 165C640 153 704 134 768 131C832 128 896 141 928 147.5L960 154L960 95L928 88C896 81 832 67 768 61C704 55 640 57 576 61.5C512 66 448 73 384 84C320 95 256 110 192 114C128 118 64 111 32 107.5L0 104Z" fill="#d0d9c0"></path><path d="M0 232L32 236C64 240 128 248 192 249.5C256 251 320 246 384 241.5C448 237 512 233 576 213C640 193 704 157 768 152C832 147 896 173 928 186L960 199L960 152L928 145.5C896 139 832 126 768 129C704 132 640 151 576 163C512 175 448 180 384 191.5C320 203 256 221 192 227C128 233 64 227 32 224L0 221Z" fill="#dbe3cb"></path><path d="M0 301L32 301C64 301 128 301 192 301C256 301 320 301 384 301C448 301 512 301 576 301C640 301 704 301 768 301C832 301 896 301 928 301L960 301L960 197L928 184C896 171 832 145 768 150C704 155 640 191 576 211C512 231 448 235 384 239.5C320 244 256 249 192 247.5C128 246 64 238 32 234L0 230Z" fill="#e6eed6"></path></svg>