<svg id="visual" viewBox="0 0 960 300" width="960" height="300" xmlns="http://www.w3.org/2000/svg" xmlns:xlink="http://www.w3.org/1999/xlink" version="1.1"><path d="M0 94L32 85C64 76 128 58 192 49.5C256 41 320 42 384 55.5C448 69 512 95 576 99C640 103 704 85 768 76C832 67 896 67 928 67L960 67L960 0L928 0C896 0 832 0 768 0C704 0 640 0 576 0C512 0 448 0 384 0C320 0 256 0 192 0C128 0 64 0 32 0L0 0Z" fill="#e6eed6"></path><path d="M0 136L32 124C64 112 128 88 192 75C256 62 320 60 384 75.5C448 91 512 124 576 129C640 134 704 111 768 103.5C832 96 896 104 928 108L960 112L960 65L928 65C896 65 832 65 768 74C704 83 640 101 576 97C512 93 448 67 384 53.5C320 40 256 39 192 47.5C128 56 64 74 32 83L0 92Z" fill="#dde6cd"></path><path d="M0 184L32 175C64 166 128 148 192 132.5C256 117 320 104 384 116.5C448 129 512 167 576 177C640 187 704 169 768 157.5C832 146 896 141 928 138.5L960 136L960 110L928 106C896 102 832 94 768 101.5C704 109 640 132 576 127C512 122 448 89 384 73.5C320 58 256 60 192 73C128 86 64 110 32 122L0 134Z" fill="#d4ddc4"></path><path d="M0 235L32 220C64 205 128 175 192 158.5C256 142 320 139 384 152C448 165 512 194 576 198C640 202 704 181 768 169.5C832 158 896 156 928 155L960 154L960 134L928 136.5C896 139 832 144 768 155.5C704 167 640 185 576 175C512 165 448 127 384 114.5C320 102 256 115 192 130.5C128 146 64 164 32 173L0 182Z" fill="#ccd5bc"></path><path d="M0 253L32 246C64 239 128 225 192 216C256 207 320 203 384 213C448 223 512 247 576 246.5C640 246 704 221 768 211.5C832 202 896 208 928 211L960 214L960 152L928 153C896 154 832 156 768 167.5C704 179 640 200 576 196C512 192 448 163 384 150C320 137 256 140 192 156.5C128 173 64 203 32 218L0 233Z" fill="#c3cdb3"></path><path d="M0 301L32 301C64 301 128 301 192 301C256 301 320 301 384 301C448 301 512 301 576 301C640 301 704 301 768 301C832 301 896 301 928 301L960 301L960 212L928 209C896 206 832 200 768 209.5C704 219 640 244 576 244.5C512 245 448 221 384 211C320 201 256 205 192 214C128 223 64 237 32 244L0 251Z" fill="#bbc5aa"></path></svg>