<svg id="visual" viewBox="0 0 960 300" width="960" height="300" xmlns="http://www.w3.org/2000/svg" xmlns:xlink="http://www.w3.org/1999/xlink" version="1.1"><path d="M0 145L32 136C64 127 128 109 192 108C256 107 320 123 384 136C448 149 512 159 576 143C640 127 704 85 768 71.5C832 58 896 73 928 80.5L960 88L960 0L928 0C896 0 832 0 768 0C704 0 640 0 576 0C512 0 448 0 384 0C320 0 256 0 192 0C128 0 64 0 32 0L0 0Z" fill="#e6eed6"></path><path d="M0 151L32 146C64 141 128 131 192 138C256 145 320 169 384 178C448 187 512 181 576 167.5C640 154 704 133 768 127C832 121 896 130 928 134.5L960 139L960 86L928 78.5C896 71 832 56 768 69.5C704 83 640 125 576 141C512 157 448 147 384 134C320 121 256 105 192 106C128 107 64 125 32 134L0 143Z" fill="#e0e8cc"></path><path d="M0 211L32 207.5C64 204 128 197 192 204C256 211 320 232 384 234C448 236 512 219 576 209C640 199 704 196 768 190C832 184 896 175 928 170.5L960 166L960 137L928 132.5C896 128 832 119 768 125C704 131 640 152 576 165.5C512 179 448 185 384 176C320 167 256 143 192 136C128 129 64 139 32 144L0 149Z" fill="#dae2c2"></path><path d="M0 274L32 261C64 248 128 222 192 220.5C256 219 320 242 384 252C448 262 512 259 576 256C640 253 704 250 768 243.5C832 237 896 227 928 222L960 217L960 164L928 168.5C896 173 832 182 768 188C704 194 640 197 576 207C512 217 448 234 384 232C320 230 256 209 192 202C128 195 64 202 32 205.5L0 209Z" fill="#d4dcb8"></path><path d="M0 301L32 301C64 301 128 301 192 301C256 301 320 301 384 301C448 301 512 301 576 301C640 301 704 301 768 301C832 301 896 301 928 301L960 301L960 215L928 220C896 225 832 235 768 241.5C704 248 640 251 576 254C512 257 448 260 384 250C320 240 256 217 192 218.5C128 220 64 246 32 259L0 272Z" fill="#cfd6ae"></path></svg>