<svg id="visual" viewBox="0 0 960 300" width="960" height="300" xmlns="http://www.w3.org/2000/svg" xmlns:xlink="http://www.w3.org/1999/xlink" version="1.1"><rect x="0" y="0" width="960" height="300" fill="#e6eed6"></rect><path d="M0 105L40 128.7C80 152.3 160 199.7 240 209.2C320 218.7 400 190.3 480 163C560 135.7 640 109.3 720 110.2C800 111 880 139 920 153L960 167L960 301L920 301C880 301 800 301 720 301C640 301 560 301 480 301C400 301 320 301 240 301C160 301 80 301 40 301L0 301Z" fill="#bbc5aa" stroke-linecap="round" stroke-linejoin="miter"></path></svg>