<svg id="visual" viewBox="0 0 960 300" width="960" height="300" xmlns="http://www.w3.org/2000/svg" xmlns:xlink="http://www.w3.org/1999/xlink" version="1.1"><rect x="0" y="0" width="960" height="300" fill="#e6eed6"></rect><path d="M0 160L40 169.8C80 179.7 160 199.3 240 184.5C320 169.7 400 120.3 480 124.5C560 128.7 640 186.3 720 197.8C800 209.3 880 174.7 920 157.3L960 140L960 301L920 301C880 301 800 301 720 301C640 301 560 301 480 301C400 301 320 301 240 301C160 301 80 301 40 301L0 301Z" fill="#cfd6ae" stroke-linecap="round" stroke-linejoin="miter"></path></svg>